<?xml version="1.0" encoding="UTF-8"?><svg id="Layer_1" xmlns="http://www.w3.org/2000/svg" viewBox="0 0 375 375"><defs><style>.cls-1{fill:#fff;}</style></defs><path class="cls-1" d="M375,0v375H0V0h375ZM206.21,74.85c-3.2-.49-8.46,0-11.98,0-4.61,0-21.63,6.45-26.32,8.86-12.22,6.26-17.28,14.19-26.81,22.59-3.99,3.51-16.1,4.82-21.92,6.52-42.27,12.37-71.91,37.93-80.79,82.38-1.01,5.04-.4,9.32-1.15,13.82s-4.44,9.28-4.98,14.48c-.26,2.46-.63,8.07,3.16,7.58s10.02-9.92,14.2-12.67c11-7.25,27.87-7.12,39.38-14.51,8.15-5.24,8.11-10.03,19.89-9.28,14.89.96,25.62,5.83,41.56,1.86,5.05-1.26,20.33-9.12,24.2-12.48.77-.67,1.58-.72,1.24-2.12-2.48.4-4.54.86-7.13.78-6.75-.19-26.08-1.37-30.99-4.95-.86-.63-1.56-1.43-2.28-2.2.01-1.99,16.66-4.34,19.2-4.74,51.93-8.1,100.12,6.49,140.16,39.98,7.55,6.31,4.78,10.26,6.27,19.18,1.61,9.63,6.14,19.97,13.99,26.04.68-8.39,5.38-15.27,3.75-23.95,8.68.4,17.3-1.68,25.61-3.95,6.94-1.9,15.86-4.48,21.54-8.76-15.58-3.6-29.44-14.09-46.02-14.28-4.62-.05-8.64,2.23-13.09-1.09-20.03-32.96-43.09-66.26-78.85-83.57-9.88-4.78-31.44-8.83-34.42-20.21-3.35-12.79,11.3-13.71,14.48-24.12,0-.35-1.67-1.16-1.9-1.19Z"/><path d="M206.21,74.85c.23.04,1.91.84,1.9,1.19-3.18,10.41-17.84,11.33-14.48,24.12,2.98,11.38,24.54,15.43,34.42,20.21,35.77,17.31,58.82,50.61,78.85,83.57,4.45,3.32,8.47,1.03,13.09,1.09,16.58.19,30.44,10.68,46.02,14.28-5.68,4.28-14.61,6.86-21.54,8.76-8.32,2.28-16.93,4.35-25.61,3.95,1.63,8.69-3.07,15.57-3.75,23.95-7.86-6.07-12.39-16.41-13.99-26.04-1.49-8.92,1.28-12.87-6.27-19.18-40.03-33.49-88.23-48.08-140.16-39.98-2.54.4-19.18,2.75-19.2,4.74.73.76,1.43,1.57,2.28,2.2,4.91,3.59,24.24,4.76,30.99,4.95,2.59.07,4.65-.38,7.13-.78.33,1.4-.48,1.45-1.24,2.12-3.86,3.36-19.14,11.22-24.2,12.48-15.93,3.97-26.66-.9-41.56-1.86-11.78-.76-11.74,4.04-19.89,9.28-11.51,7.39-28.38,7.26-39.38,14.51-4.19,2.76-10.57,12.21-14.2,12.67s-3.41-5.13-3.16-7.58c.54-5.2,4.23-9.98,4.98-14.48s.14-8.78,1.15-13.82c8.88-44.46,38.52-70.01,80.79-82.38,5.82-1.7,17.93-3.01,21.92-6.52,9.53-8.4,14.59-16.33,26.81-22.59,4.69-2.41,21.71-8.86,26.32-8.86,3.51,0,8.78-.49,11.98,0Z"/></svg>