<?xml version="1.0" encoding="UTF-8"?><svg id="Layer_1" xmlns="http://www.w3.org/2000/svg" xmlns:xlink="http://www.w3.org/1999/xlink" viewBox="0 0 334 334"><defs><style>.cls-1{fill:none;}.cls-2{fill:url(#New_Pattern);}</style><pattern id="New_Pattern" x="0" y="0" width="59.7" height="50.95" patternTransform="translate(0 334)" patternUnits="userSpaceOnUse" viewBox="0 0 59.7 50.95"><rect class="cls-1" width="59.7" height="50.95"/><path id="Path" d="M59.27,42.48c-.41,0-1.93.6-2.35.83-1.09.59-1.55,1.33-2.4,2.12-.36.33-1.44.45-1.96.61-3.78,1.16-6.43,3.55-7.22,7.72-.09.47-.04.87-.1,1.29s-.4.87-.45,1.36c-.02.23-.04.75.28.71.32-.04.9-.93,1.27-1.19.98-.68,2.49-.67,3.52-1.36.73-.49.73-.94,1.78-.87,1.33.09,2.29.55,3.72.17.45-.12,1.82-.85,2.16-1.17.07-.06.14-.07.11-.2-.22.04-.41.08-.64.07-.6-.02-2.33-.13-2.77-.46l-.2-.21c0-.19,1.49-.41,1.72-.44,4.64-.76,8.95.61,12.53,3.74.68.59.43.96.56,1.8.14.9.55,1.87,1.25,2.44.06-.78.48-1.43.34-2.24.78.04,1.55-.16,2.29-.37.62-.18,1.42-.42,1.93-.82-1.39-.34-2.63-1.32-4.11-1.34-.41,0-.77.21-1.17-.1-1.79-3.09-3.85-6.21-7.05-7.83-.88-.45-2.81-.83-3.08-1.89-.3-1.2,1.01-1.28,1.29-2.26,0-.03-.15-.11-.17-.11-.29-.05-.76,0-1.07,0Z"/><path id="Path-2" d="M-.43,42.48c-.41,0-1.93.6-2.35.83-1.09.59-1.55,1.33-2.4,2.12-.36.33-1.44.45-1.96.61-3.78,1.16-6.43,3.55-7.22,7.72-.09.47-.04.87-.1,1.29s-.4.87-.45,1.36c-.02.23-.04.75.28.71.32-.04.9-.93,1.27-1.19.98-.68,2.49-.67,3.52-1.36.73-.49.73-.94,1.78-.87,1.33.09,2.29.55,3.72.17.45-.12,1.82-.85,2.16-1.17.07-.06.14-.07.11-.2-.22.04-.41.08-.64.07-.6-.02-2.33-.13-2.77-.46l-.2-.21c0-.19,1.49-.41,1.72-.44,4.64-.76,8.95.61,12.53,3.74.68.59.43.96.56,1.8.14.9.55,1.87,1.25,2.44.06-.78.48-1.43.34-2.24.78.04,1.55-.16,2.29-.37.62-.18,1.42-.42,1.93-.82-1.39-.34-2.63-1.32-4.11-1.34-.41,0-.77.21-1.17-.1-1.79-3.09-3.85-6.21-7.05-7.83-.88-.45-2.81-.83-3.08-1.89-.3-1.2,1.01-1.28,1.29-2.26,0-.03-.15-.11-.17-.11-.29-.05-.76,0-1.07,0Z"/><path id="Path-3" d="M59.27,25.5c-.41,0-1.93.6-2.35.83-1.09.59-1.55,1.33-2.4,2.12-.36.33-1.44.45-1.96.61-3.78,1.16-6.43,3.55-7.22,7.72-.09.47-.04.87-.1,1.29s-.4.87-.45,1.36c-.02.23-.04.75.28.71.32-.04.9-.93,1.27-1.19.98-.68,2.49-.67,3.52-1.36.73-.49.73-.94,1.78-.87,1.33.09,2.29.55,3.72.17.45-.12,1.82-.85,2.16-1.17.07-.06.14-.07.11-.2-.22.04-.41.08-.64.07-.6-.02-2.33-.13-2.77-.46l-.2-.21c0-.19,1.49-.41,1.72-.44,4.64-.76,8.95.61,12.53,3.74.68.59.43.96.56,1.8.14.9.55,1.87,1.25,2.44.06-.78.48-1.43.34-2.24.78.04,1.55-.16,2.29-.37.62-.18,1.42-.42,1.93-.82-1.39-.34-2.63-1.32-4.11-1.34-.41,0-.77.21-1.17-.1-1.79-3.09-3.85-6.21-7.05-7.83-.88-.45-2.81-.83-3.08-1.89-.3-1.2,1.01-1.28,1.29-2.26,0-.03-.15-.11-.17-.11-.29-.05-.76,0-1.07,0Z"/><path id="Path-4" d="M29.42,33.99c-.41,0-1.93.6-2.35.83-1.09.59-1.55,1.33-2.4,2.12-.36.33-1.44.45-1.96.61-3.78,1.16-6.43,3.55-7.22,7.72-.09.47-.04.87-.1,1.29s-.4.87-.45,1.36c-.02.23-.04.75.28.71.32-.04.9-.93,1.27-1.19.98-.68,2.49-.67,3.52-1.36.73-.49.73-.94,1.78-.87,1.33.09,2.29.55,3.72.17.45-.12,1.82-.85,2.16-1.17.07-.06.14-.07.11-.2-.22.04-.41.08-.64.07-.6-.02-2.33-.13-2.77-.46l-.2-.21c0-.19,1.49-.41,1.72-.44,4.64-.76,8.95.61,12.53,3.74.68.59.43.96.56,1.8.14.9.55,1.87,1.25,2.44.06-.78.48-1.43.34-2.24.78.04,1.55-.16,2.29-.37.62-.18,1.42-.42,1.93-.82-1.39-.34-2.63-1.32-4.11-1.34-.41,0-.77.21-1.17-.1-1.79-3.09-3.85-6.21-7.05-7.83-.88-.45-2.81-.83-3.08-1.89-.3-1.2,1.01-1.28,1.29-2.26,0-.03-.15-.11-.17-.11-.29-.05-.76,0-1.07,0Z"/><path id="Path-5" d="M-.43,25.5c-.41,0-1.93.6-2.35.83-1.09.59-1.55,1.33-2.4,2.12-.36.33-1.44.45-1.96.61-3.78,1.16-6.43,3.55-7.22,7.72-.09.47-.04.87-.1,1.29s-.4.87-.45,1.36c-.02.23-.04.75.28.71.32-.04.9-.93,1.27-1.19.98-.68,2.49-.67,3.52-1.36.73-.49.73-.94,1.78-.87,1.33.09,2.29.55,3.72.17.45-.12,1.82-.85,2.16-1.17.07-.06.14-.07.11-.2-.22.04-.41.08-.64.07-.6-.02-2.33-.13-2.77-.46l-.2-.21c0-.19,1.49-.41,1.72-.44,4.64-.76,8.95.61,12.53,3.74.68.59.43.96.56,1.8.14.9.55,1.87,1.25,2.44.06-.78.48-1.43.34-2.24.78.04,1.55-.16,2.29-.37.62-.18,1.42-.42,1.93-.82-1.39-.34-2.63-1.32-4.11-1.34-.41,0-.77.21-1.17-.1-1.79-3.09-3.85-6.21-7.05-7.83-.88-.45-2.81-.83-3.08-1.89-.3-1.2,1.01-1.28,1.29-2.26,0-.03-.15-.11-.17-.11-.29-.05-.76,0-1.07,0Z"/><path id="Path-6" d="M59.27,8.51c-.41,0-1.93.6-2.35.83-1.09.59-1.55,1.33-2.4,2.12-.36.33-1.44.45-1.96.61-3.78,1.16-6.43,3.55-7.22,7.72-.09.47-.04.87-.1,1.29s-.4.87-.45,1.36c-.02.23-.04.75.28.71.32-.04.9-.93,1.27-1.19.98-.68,2.49-.67,3.52-1.36.73-.49.73-.94,1.78-.87,1.33.09,2.29.55,3.72.17.45-.12,1.82-.85,2.16-1.17.07-.06.14-.07.11-.2-.22.04-.41.08-.64.07-.6-.02-2.33-.13-2.77-.46l-.2-.21c0-.19,1.49-.41,1.72-.44,4.64-.76,8.95.61,12.53,3.74.68.59.43.96.56,1.8.14.9.55,1.87,1.25,2.44.06-.78.48-1.43.34-2.24.78.04,1.55-.16,2.29-.37.62-.18,1.42-.42,1.93-.82-1.39-.34-2.63-1.32-4.11-1.34-.41,0-.77.21-1.17-.1-1.79-3.09-3.85-6.21-7.05-7.83-.88-.45-2.81-.83-3.08-1.89-.3-1.2,1.01-1.28,1.29-2.26,0-.03-.15-.11-.17-.11-.29-.05-.76,0-1.07,0Z"/><path id="Path-7" d="M29.42,17c-.41,0-1.93.6-2.35.83-1.09.59-1.55,1.33-2.4,2.12-.36.33-1.44.45-1.96.61-3.78,1.16-6.43,3.55-7.22,7.72-.09.47-.04.87-.1,1.29s-.4.87-.45,1.36c-.02.23-.04.75.28.71.32-.04.9-.93,1.27-1.19.98-.68,2.49-.67,3.52-1.36.73-.49.73-.94,1.78-.87,1.33.09,2.29.55,3.72.17.45-.12,1.82-.85,2.16-1.17.07-.06.14-.07.11-.2-.22.04-.41.08-.64.07-.6-.02-2.33-.13-2.77-.46l-.2-.21c0-.19,1.49-.41,1.72-.44,4.64-.76,8.95.61,12.53,3.74.68.59.43.96.56,1.8.14.9.55,1.87,1.25,2.44.06-.78.48-1.43.34-2.24.78.04,1.55-.16,2.29-.37.62-.18,1.42-.42,1.93-.82-1.39-.34-2.63-1.32-4.11-1.34-.41,0-.77.21-1.17-.1-1.79-3.09-3.85-6.21-7.05-7.83-.88-.45-2.81-.83-3.08-1.89-.3-1.2,1.01-1.28,1.29-2.26,0-.03-.15-.11-.17-.11-.29-.05-.76,0-1.07,0Z"/><path id="Path-8" d="M-.43,8.51c-.41,0-1.93.6-2.35.83-1.09.59-1.55,1.33-2.4,2.12-.36.33-1.44.45-1.96.61-3.78,1.16-6.43,3.55-7.22,7.72-.09.47-.04.87-.1,1.29s-.4.87-.45,1.36c-.02.23-.04.75.28.71.32-.04.9-.93,1.27-1.19.98-.68,2.49-.67,3.52-1.36.73-.49.73-.94,1.78-.87,1.33.09,2.29.55,3.72.17.45-.12,1.82-.85,2.16-1.17.07-.06.14-.07.11-.2-.22.04-.41.08-.64.07-.6-.02-2.33-.13-2.77-.46l-.2-.21c0-.19,1.49-.41,1.72-.44,4.64-.76,8.95.61,12.53,3.74.68.59.43.96.56,1.8.14.9.55,1.87,1.25,2.44.06-.78.48-1.43.34-2.24.78.04,1.55-.16,2.29-.37.62-.18,1.42-.42,1.93-.82-1.39-.34-2.63-1.32-4.11-1.34-.41,0-.77.21-1.17-.1-1.79-3.09-3.85-6.21-7.05-7.83-.88-.45-2.81-.83-3.08-1.89-.3-1.2,1.01-1.28,1.29-2.26,0-.03-.15-.11-.17-.11-.29-.05-.76,0-1.07,0Z"/><path id="Path-9" d="M59.27-8.47c-.41,0-1.93.6-2.35.83-1.09.59-1.55,1.33-2.4,2.12-.36.33-1.44.45-1.96.61-3.78,1.16-6.43,3.55-7.22,7.72-.09.47-.04.87-.1,1.29s-.4.87-.45,1.36c-.02.23-.04.75.28.71.32-.04.9-.93,1.27-1.19.98-.68,2.49-.67,3.52-1.36.73-.49.73-.94,1.78-.87,1.33.09,2.29.55,3.72.17.45-.12,1.82-.85,2.16-1.17.07-.06.14-.07.11-.2-.22.04-.41.08-.64.07-.6-.02-2.33-.13-2.77-.46l-.2-.21c0-.19,1.49-.41,1.72-.44,4.64-.76,8.95.61,12.53,3.74.68.59.43.96.56,1.8.14.9.55,1.87,1.25,2.44.06-.78.48-1.43.34-2.24.78.04,1.55-.16,2.29-.37.62-.18,1.42-.42,1.93-.82-1.39-.34-2.63-1.32-4.11-1.34-.41,0-.77.21-1.17-.1-1.79-3.09-3.85-6.21-7.05-7.83-.88-.45-2.81-.83-3.08-1.89-.3-1.2,1.01-1.28,1.29-2.26,0-.03-.15-.11-.17-.11-.29-.05-.76,0-1.07,0Z"/><path id="Path-10" d="M29.42.02c-.41,0-1.93.6-2.35.83-1.09.59-1.55,1.33-2.4,2.12-.36.33-1.44.45-1.96.61-3.78,1.16-6.43,3.55-7.22,7.72-.09.47-.04.87-.1,1.29s-.4.87-.45,1.36c-.02.23-.04.75.28.71.32-.04.9-.93,1.27-1.19.98-.68,2.49-.67,3.52-1.36.73-.49.73-.94,1.78-.87,1.33.09,2.29.55,3.72.17.45-.12,1.82-.85,2.16-1.17.07-.06.14-.07.11-.2-.22.04-.41.08-.64.07-.6-.02-2.33-.13-2.77-.46l-.2-.21c0-.19,1.49-.41,1.72-.44,4.64-.76,8.95.61,12.53,3.74.68.59.43.96.56,1.8.14.9.55,1.87,1.25,2.44.06-.78.48-1.43.34-2.24.78.04,1.55-.16,2.29-.37.62-.18,1.42-.42,1.93-.82-1.39-.34-2.63-1.32-4.11-1.34-.41,0-.77.21-1.17-.1-1.79-3.09-3.85-6.21-7.05-7.83-.88-.45-2.81-.83-3.08-1.89-.3-1.2,1.01-1.28,1.29-2.26,0-.03-.15-.11-.17-.11-.29-.05-.76,0-1.07,0Z"/><path id="Path-11" d="M-.43-8.47c-.41,0-1.93.6-2.35.83-1.09.59-1.55,1.33-2.4,2.12-.36.33-1.44.45-1.96.61-3.78,1.16-6.43,3.55-7.22,7.72-.09.47-.04.87-.1,1.29s-.4.87-.45,1.36c-.02.23-.04.75.28.71.32-.04.9-.93,1.27-1.19.98-.68,2.49-.67,3.52-1.36.73-.49.73-.94,1.78-.87,1.33.09,2.29.55,3.72.17.45-.12,1.82-.85,2.16-1.17.07-.06.14-.07.11-.2-.22.04-.41.08-.64.07-.6-.02-2.33-.13-2.77-.46l-.2-.21c0-.19,1.49-.41,1.72-.44C.67-.25,4.98,1.12,8.56,4.26c.68.59.43.96.56,1.8.14.9.55,1.87,1.25,2.44.06-.78.48-1.43.34-2.24.78.04,1.55-.16,2.29-.37.62-.18,1.42-.42,1.93-.82-1.39-.34-2.63-1.32-4.11-1.34-.41,0-.77.21-1.17-.1C7.85.53,5.79-2.59,2.59-4.21c-.88-.45-2.81-.83-3.08-1.89-.3-1.2,1.01-1.28,1.29-2.26,0-.03-.15-.11-.17-.11-.29-.05-.76,0-1.07,0Z"/></pattern></defs><rect class="cls-2" width="334" height="334"/></svg>